# xmcd CD database file
#
# Track frame offsets:
#	150
#	45939
#	74662
#	96720
#	126526
#	186641
#
# Disc length: 3197 seconds
#
# Revision: 0
# Processed by: cddbd v1.5.2PL0 Copyright (c) Steve Scherf et al.
# Submitted via: CDex 1.70beta2
#
DISCID=620c7b06
DTITLE=MTKJ Quartet - Making Room For Spaces
DYEAR=2004
DGENRE=Jazz
TTITLE0=Like That, She's Gone
TTITLE1=Suite 1 - And So It Goes...
TTITLE2=Suite 1 - Function
TTITLE3=Suite 1 - Fish Face
TTITLE4=Suite 2 - Nuts And Gum, Together At Last!
TTITLE5=Suite 2 - Mearsyshmearsy
EXTD=YEAR: 2004
EXTT0=
EXTT1=
EXTT2=
EXTT3=
EXTT4=
EXTT5=
PLAYORDER=
